# xmcd
#
# Track frame offsets: 
#        150
#        11557
#        23575
#        35725
#        48930
#        65217
#        78425
#        91152
#        108407
#        119522
#        135570
#        150522
#        162457
#        177225
#        188785
#        198415
#
# Disc length: 2835 seconds
#
# Revision: 6
# Processed by: cddbd v1.5.2PL0 Copyright (c) Steve Scherf et al.
# Submitted via: ExactAudioCopyFreeDBPlugin 1.0
#
DISCID=d10b1110
DTITLE=First Ladies of Country - Songbirds
DYEAR=1987
DGENRE=country
TTITLE0=Dolly Parton - Just the Way I Am
TTITLE1=Tammy Wynett - There Goes My Everything
TTITLE2=Crystal Gayle) - I've Cried the Blue Right Out of My Eye
TTITLE3=Tanya Tucker - Delta Dawn
TTITLE4=Rita Coolidge - We're All Alone
TTITLE5=Lynn Anderson - Rose Garden
TTITLE6=Tammy Wynette - Take Me to Your World
TTITLE7=Crystal Gayle - The Other Side of Me
TTITLE8=Linda Ronstadt - Will You Love Me Tomorrow
TTITLE9=Billie Jo Spears - Blanket on the Ground
TTITLE10=Jeannie C. Riley - Harper Valley P.T.A.
TTITLE11=Skeeter Davis - End of the World
TTITLE12=Lynn Anderson - I Love How You Love Me
TTITLE13=Crystal Gayle - Don't it Make My Brown Eyes Blue
TTITLE14=Patsy Cline - True Love
TTITLE15=Dolly Parton - Lonely Coming Down
EXTD=1987\nStarblend Records
EXTT0=
EXTT1=
EXTT2=
EXTT3=
EXTT4=
EXTT5=
EXTT6=
EXTT7=
EXTT8=
EXTT9=
EXTT10=
EXTT11=
EXTT12=
EXTT13=
EXTT14=
EXTT15=
PLAYORDER=
